<svg xmlns="http://www.w3.org/2000/svg" xmlns:xlink="http://www.w3.org/1999/xlink" width="218" zoomAndPan="magnify" viewBox="0 0 163.5 82.499998" height="110" preserveAspectRatio="xMidYMid meet" version="1.0"><defs><g/><clipPath id="42e4139971"><path d="M 0.242188 0 L 162.757812 0 L 162.757812 82.003906 L 0.242188 82.003906 Z M 0.242188 0 " clip-rule="nonzero"/></clipPath><clipPath id="c6b45ff838"><path d="M 0.242188 0 L 162.757812 0 L 162.757812 82.003906 L 0.242188 82.003906 Z M 0.242188 0 " clip-rule="nonzero"/></clipPath><clipPath id="ac003fea72"><rect x="0" width="163" y="0" height="83"/></clipPath><clipPath id="145e33b935"><path d="M 0.242188 28 L 46 28 L 46 67 L 0.242188 67 Z M 0.242188 28 " clip-rule="nonzero"/></clipPath><clipPath id="f9412a9efb"><path d="M 6 15 L 56.902344 15 L 56.902344 67 L 6 67 Z M 6 15 " clip-rule="nonzero"/></clipPath></defs><g clip-path="url(#42e4139971)"><g><g clip-path="url(#ac003fea72)"><g clip-path="url(#c6b45ff838)"><path fill="#ffffff" d="M 0.242188 0 L 162.648438 0 L 162.648438 82.003906 L 0.242188 82.003906 Z M 0.242188 0 " fill-opacity="1" fill-rule="nonzero"/></g></g></g></g><g clip-path="url(#145e33b935)"><path fill="#ffc527" d="M 0.25 66.574219 L 6.628906 61.445312 L 6.628906 52.300781 C 15.175781 44.402344 23.84375 36.582031 32.480469 28.695312 C 36.636719 32.925781 40.75 37.203125 45.039062 41.269531 L 45.039062 66.664062 L 19.976562 66.664062 L 19.976562 55.46875 C 19 56.46875 18.011719 57.265625 16.988281 58.199219 L 16.988281 66.664062 L 13.265625 66.664062 L 13.265625 56.253906 C 13.386719 56.023438 13.6875 55.96875 13.875 55.765625 C 14.066406 55.566406 14.199219 55.34375 14.464844 55.265625 C 15.578125 54.15625 16.742188 53.246094 17.878906 52.222656 C 19.933594 50.488281 21.867188 48.589844 24 46.96875 C 23.902344 52.035156 24 57.1875 23.945312 62.332031 L 34.757812 62.332031 C 34.757812 57.121094 34.757812 51.902344 34.871094 46.703125 C 34.902344 46.328125 34.777344 46.015625 34.492188 45.769531 C 33.523438 44.878906 32.679688 43.867188 31.769531 42.914062 C 30.402344 41.546875 29.113281 40.046875 27.757812 38.691406 C 27.566406 38.691406 27.5 38.835938 27.421875 38.925781 C 26.3125 39.980469 25.199219 40.992188 24.089844 42.015625 C 19.644531 46.046875 15.199219 50.132812 10.753906 54.132812 L 10.753906 66.5 L 10.585938 66.664062 L 0.25 66.664062 Z M 41.238281 43.246094 C 38.238281 40.347656 35.359375 37.179688 32.347656 34.4375 L 30.546875 36.113281 C 32.335938 37.847656 33.96875 39.726562 35.769531 41.445312 C 36.601562 42.246094 37.390625 43.089844 38.226562 43.890625 C 38.390625 44.066406 38.507812 44.265625 38.582031 44.492188 C 38.683594 48.089844 38.582031 51.757812 38.582031 55.390625 C 38.582031 57.699219 38.394531 60 38.46875 62.308594 L 41.09375 62.308594 C 41.105469 55.957031 41.125 49.566406 41.238281 43.191406 Z M 41.238281 43.246094 " fill-opacity="1" fill-rule="nonzero"/></g><g clip-path="url(#f9412a9efb)"><path fill="#555555" d="M 50.917969 61.886719 L 56.839844 66.652344 L 46.929688 66.652344 L 46.929688 38.769531 C 41.117188 32.980469 35.515625 27.226562 29.667969 21.394531 C 28.558594 22.277344 27.503906 23.21875 26.5 24.21875 C 25.546875 25.140625 24.546875 26.015625 23.589844 26.917969 C 20.625 29.648438 17.664062 32.371094 14.699219 35.082031 C 13.585938 36.191406 12.363281 37.214844 11.1875 38.269531 C 10.957031 38.453125 10.796875 38.6875 10.707031 38.96875 L 10.707031 45.558594 C 9.597656 46.789062 8.21875 47.703125 7.074219 48.890625 C 6.984375 48.980469 6.839844 48.890625 6.796875 49.046875 C 6.6875 48.613281 6.652344 40.28125 6.730469 36.824219 C 14.363281 29.628906 22.066406 22.640625 29.734375 15.5625 C 36.925781 22.582031 43.78125 29.828125 50.917969 36.792969 Z M 50.917969 61.886719 " fill-opacity="1" fill-rule="nonzero"/></g><g fill="#000000" fill-opacity="1"><g transform="translate(88.308798, 48.465648)"><g><path d="M 7.625 -4.671875 L 6.5 -8 C 6.414062 -8.21875 6.328125 -8.46875 6.234375 -8.75 C 6.140625 -9.039062 6.046875 -9.351562 5.953125 -9.6875 C 5.867188 -9.34375 5.773438 -9.023438 5.671875 -8.734375 C 5.578125 -8.453125 5.488281 -8.203125 5.40625 -7.984375 L 4.28125 -4.671875 Z M 12.125 0 L 9.9375 0 C 9.6875 0 9.484375 -0.0546875 9.328125 -0.171875 C 9.179688 -0.285156 9.070312 -0.429688 9 -0.609375 L 8.28125 -2.734375 L 3.640625 -2.734375 L 2.921875 -0.609375 C 2.859375 -0.453125 2.742188 -0.3125 2.578125 -0.1875 C 2.421875 -0.0625 2.226562 0 2 0 L -0.21875 0 L 4.5 -12.203125 L 7.40625 -12.203125 Z M 12.125 0 "/></g></g></g><g fill="#000000" fill-opacity="1"><g transform="translate(100.209901, 48.465648)"><g><path d="M 12.25 -6.109375 C 12.25 -5.222656 12.097656 -4.40625 11.796875 -3.65625 C 11.492188 -2.914062 11.066406 -2.269531 10.515625 -1.71875 C 9.960938 -1.175781 9.296875 -0.753906 8.515625 -0.453125 C 7.734375 -0.148438 6.867188 0 5.921875 0 L 1.1875 0 L 1.1875 -12.203125 L 5.921875 -12.203125 C 6.867188 -12.203125 7.734375 -12.046875 8.515625 -11.734375 C 9.296875 -11.429688 9.960938 -11.007812 10.515625 -10.46875 C 11.066406 -9.925781 11.492188 -9.28125 11.796875 -8.53125 C 12.097656 -7.789062 12.25 -6.984375 12.25 -6.109375 Z M 9.359375 -6.109375 C 9.359375 -6.710938 9.28125 -7.253906 9.125 -7.734375 C 8.96875 -8.222656 8.738281 -8.632812 8.4375 -8.96875 C 8.144531 -9.3125 7.785156 -9.570312 7.359375 -9.75 C 6.941406 -9.9375 6.460938 -10.03125 5.921875 -10.03125 L 4.03125 -10.03125 L 4.03125 -2.171875 L 5.921875 -2.171875 C 6.460938 -2.171875 6.941406 -2.257812 7.359375 -2.4375 C 7.785156 -2.625 8.144531 -2.882812 8.4375 -3.21875 C 8.738281 -3.5625 8.96875 -3.972656 9.125 -4.453125 C 9.28125 -4.941406 9.359375 -5.492188 9.359375 -6.109375 Z M 9.359375 -6.109375 "/></g></g></g><g fill="#000000" fill-opacity="1"><g transform="translate(112.947932, 48.465648)"><g><path d="M 6.265625 -2.234375 C 6.648438 -2.234375 6.988281 -2.296875 7.28125 -2.421875 C 7.582031 -2.546875 7.835938 -2.722656 8.046875 -2.953125 C 8.253906 -3.191406 8.410156 -3.476562 8.515625 -3.8125 C 8.628906 -4.15625 8.6875 -4.539062 8.6875 -4.96875 L 8.6875 -12.203125 L 11.515625 -12.203125 L 11.515625 -4.96875 C 11.515625 -4.226562 11.390625 -3.539062 11.140625 -2.90625 C 10.898438 -2.28125 10.554688 -1.742188 10.109375 -1.296875 C 9.660156 -0.847656 9.109375 -0.492188 8.453125 -0.234375 C 7.804688 0.015625 7.078125 0.140625 6.265625 0.140625 C 5.453125 0.140625 4.722656 0.015625 4.078125 -0.234375 C 3.429688 -0.492188 2.878906 -0.847656 2.421875 -1.296875 C 1.972656 -1.742188 1.628906 -2.28125 1.390625 -2.90625 C 1.148438 -3.539062 1.03125 -4.226562 1.03125 -4.96875 L 1.03125 -12.203125 L 3.859375 -12.203125 L 3.859375 -4.984375 C 3.859375 -4.554688 3.910156 -4.171875 4.015625 -3.828125 C 4.128906 -3.492188 4.289062 -3.207031 4.5 -2.96875 C 4.707031 -2.726562 4.957031 -2.546875 5.25 -2.421875 C 5.550781 -2.296875 5.890625 -2.234375 6.265625 -2.234375 Z M 6.265625 -2.234375 "/></g></g></g><g fill="#000000" fill-opacity="1"><g transform="translate(125.489706, 48.465648)"><g/></g></g><g fill="#000000" fill-opacity="1"><g transform="translate(57.757163, 64.836803)"><g><path d="M 7.171875 -2.40625 C 7.222656 -2.40625 7.269531 -2.394531 7.3125 -2.375 C 7.363281 -2.351562 7.414062 -2.320312 7.46875 -2.28125 L 8.328125 -1.375 C 7.953125 -0.882812 7.476562 -0.515625 6.90625 -0.265625 C 6.34375 -0.015625 5.679688 0.109375 4.921875 0.109375 C 4.210938 0.109375 3.578125 -0.0078125 3.015625 -0.25 C 2.453125 -0.5 1.976562 -0.832031 1.59375 -1.25 C 1.207031 -1.675781 0.910156 -2.175781 0.703125 -2.75 C 0.492188 -3.332031 0.390625 -3.96875 0.390625 -4.65625 C 0.390625 -5.34375 0.5 -5.976562 0.71875 -6.5625 C 0.945312 -7.144531 1.265625 -7.644531 1.671875 -8.0625 C 2.078125 -8.488281 2.566406 -8.816406 3.140625 -9.046875 C 3.710938 -9.285156 4.335938 -9.40625 5.015625 -9.40625 C 5.367188 -9.40625 5.695312 -9.375 6 -9.3125 C 6.3125 -9.25 6.601562 -9.160156 6.875 -9.046875 C 7.144531 -8.941406 7.390625 -8.8125 7.609375 -8.65625 C 7.835938 -8.507812 8.039062 -8.34375 8.21875 -8.15625 L 7.484375 -7.1875 C 7.441406 -7.125 7.382812 -7.066406 7.3125 -7.015625 C 7.25 -6.972656 7.160156 -6.953125 7.046875 -6.953125 C 6.972656 -6.953125 6.898438 -6.96875 6.828125 -7 C 6.765625 -7.03125 6.691406 -7.070312 6.609375 -7.125 C 6.535156 -7.175781 6.453125 -7.226562 6.359375 -7.28125 C 6.273438 -7.34375 6.171875 -7.394531 6.046875 -7.4375 C 5.921875 -7.488281 5.769531 -7.53125 5.59375 -7.5625 C 5.425781 -7.601562 5.234375 -7.625 5.015625 -7.625 C 4.648438 -7.625 4.320312 -7.554688 4.03125 -7.421875 C 3.738281 -7.285156 3.484375 -7.09375 3.265625 -6.84375 C 3.046875 -6.59375 2.878906 -6.28125 2.765625 -5.90625 C 2.648438 -5.539062 2.59375 -5.125 2.59375 -4.65625 C 2.59375 -4.175781 2.65625 -3.75 2.78125 -3.375 C 2.914062 -3.007812 3.09375 -2.695312 3.3125 -2.4375 C 3.539062 -2.1875 3.800781 -1.992188 4.09375 -1.859375 C 4.394531 -1.734375 4.71875 -1.671875 5.0625 -1.671875 C 5.25 -1.671875 5.421875 -1.679688 5.578125 -1.703125 C 5.742188 -1.722656 5.894531 -1.753906 6.03125 -1.796875 C 6.175781 -1.835938 6.3125 -1.894531 6.4375 -1.96875 C 6.5625 -2.050781 6.6875 -2.148438 6.8125 -2.265625 C 6.863281 -2.304688 6.921875 -2.335938 6.984375 -2.359375 C 7.046875 -2.390625 7.109375 -2.40625 7.171875 -2.40625 Z M 7.171875 -2.40625 "/></g></g></g><g fill="#000000" fill-opacity="1"><g transform="translate(65.908493, 64.836803)"><g><path d="M 10.03125 -4.65625 C 10.03125 -3.976562 9.910156 -3.347656 9.671875 -2.765625 C 9.441406 -2.191406 9.113281 -1.691406 8.6875 -1.265625 C 8.269531 -0.835938 7.765625 -0.5 7.171875 -0.25 C 6.578125 -0.0078125 5.921875 0.109375 5.203125 0.109375 C 4.472656 0.109375 3.8125 -0.0078125 3.21875 -0.25 C 2.625 -0.5 2.113281 -0.835938 1.6875 -1.265625 C 1.269531 -1.691406 0.941406 -2.191406 0.703125 -2.765625 C 0.472656 -3.347656 0.359375 -3.976562 0.359375 -4.65625 C 0.359375 -5.320312 0.472656 -5.941406 0.703125 -6.515625 C 0.941406 -7.097656 1.269531 -7.601562 1.6875 -8.03125 C 2.113281 -8.457031 2.625 -8.789062 3.21875 -9.03125 C 3.8125 -9.28125 4.472656 -9.40625 5.203125 -9.40625 C 5.921875 -9.40625 6.578125 -9.28125 7.171875 -9.03125 C 7.765625 -8.789062 8.269531 -8.457031 8.6875 -8.03125 C 9.113281 -7.601562 9.441406 -7.097656 9.671875 -6.515625 C 9.910156 -5.941406 10.03125 -5.320312 10.03125 -4.65625 Z M 7.8125 -4.65625 C 7.8125 -5.113281 7.753906 -5.523438 7.640625 -5.890625 C 7.523438 -6.265625 7.351562 -6.578125 7.125 -6.828125 C 6.90625 -7.085938 6.632812 -7.285156 6.3125 -7.421875 C 5.988281 -7.554688 5.617188 -7.625 5.203125 -7.625 C 4.785156 -7.625 4.410156 -7.554688 4.078125 -7.421875 C 3.753906 -7.285156 3.476562 -7.085938 3.25 -6.828125 C 3.03125 -6.578125 2.863281 -6.265625 2.75 -5.890625 C 2.632812 -5.523438 2.578125 -5.113281 2.578125 -4.65625 C 2.578125 -4.1875 2.632812 -3.769531 2.75 -3.40625 C 2.863281 -3.039062 3.03125 -2.726562 3.25 -2.46875 C 3.476562 -2.21875 3.753906 -2.023438 4.078125 -1.890625 C 4.410156 -1.753906 4.785156 -1.6875 5.203125 -1.6875 C 5.617188 -1.6875 5.988281 -1.753906 6.3125 -1.890625 C 6.632812 -2.023438 6.90625 -2.21875 7.125 -2.46875 C 7.351562 -2.726562 7.523438 -3.039062 7.640625 -3.40625 C 7.753906 -3.769531 7.8125 -4.1875 7.8125 -4.65625 Z M 7.8125 -4.65625 "/></g></g></g><g fill="#000000" fill-opacity="1"><g transform="translate(76.306791, 64.836803)"><g><path d="M 9.015625 -9.296875 L 9.015625 0 L 7.890625 0 C 7.722656 0 7.582031 -0.0234375 7.46875 -0.078125 C 7.363281 -0.128906 7.253906 -0.222656 7.140625 -0.359375 L 2.75 -5.90625 C 2.769531 -5.738281 2.78125 -5.578125 2.78125 -5.421875 C 2.789062 -5.265625 2.796875 -5.117188 2.796875 -4.984375 L 2.796875 0 L 0.90625 0 L 0.90625 -9.296875 L 2.03125 -9.296875 C 2.125 -9.296875 2.203125 -9.289062 2.265625 -9.28125 C 2.335938 -9.28125 2.394531 -9.265625 2.4375 -9.234375 C 2.488281 -9.210938 2.535156 -9.179688 2.578125 -9.140625 C 2.628906 -9.097656 2.6875 -9.039062 2.75 -8.96875 L 7.171875 -3.390625 C 7.148438 -3.566406 7.132812 -3.738281 7.125 -3.90625 C 7.113281 -4.070312 7.109375 -4.226562 7.109375 -4.375 L 7.109375 -9.296875 Z M 9.015625 -9.296875 "/></g></g></g><g fill="#000000" fill-opacity="1"><g transform="translate(86.226344, 64.836803)"><g><path d="M 6.03125 -7.40625 C 5.96875 -7.300781 5.898438 -7.222656 5.828125 -7.171875 C 5.765625 -7.128906 5.675781 -7.109375 5.5625 -7.109375 C 5.46875 -7.109375 5.363281 -7.132812 5.25 -7.1875 C 5.132812 -7.25 5.003906 -7.316406 4.859375 -7.390625 C 4.722656 -7.472656 4.5625 -7.546875 4.375 -7.609375 C 4.195312 -7.671875 3.988281 -7.703125 3.75 -7.703125 C 3.34375 -7.703125 3.039062 -7.613281 2.84375 -7.4375 C 2.644531 -7.269531 2.546875 -7.039062 2.546875 -6.75 C 2.546875 -6.5625 2.601562 -6.40625 2.71875 -6.28125 C 2.84375 -6.15625 3 -6.046875 3.1875 -5.953125 C 3.382812 -5.867188 3.609375 -5.789062 3.859375 -5.71875 C 4.109375 -5.644531 4.363281 -5.5625 4.625 -5.46875 C 4.882812 -5.375 5.140625 -5.265625 5.390625 -5.140625 C 5.640625 -5.015625 5.859375 -4.859375 6.046875 -4.671875 C 6.242188 -4.484375 6.398438 -4.25 6.515625 -3.96875 C 6.640625 -3.695312 6.703125 -3.367188 6.703125 -2.984375 C 6.703125 -2.554688 6.625 -2.15625 6.46875 -1.78125 C 6.320312 -1.40625 6.109375 -1.078125 5.828125 -0.796875 C 5.546875 -0.515625 5.195312 -0.289062 4.78125 -0.125 C 4.363281 0.03125 3.894531 0.109375 3.375 0.109375 C 3.082031 0.109375 2.785156 0.078125 2.484375 0.015625 C 2.179688 -0.046875 1.890625 -0.128906 1.609375 -0.234375 C 1.328125 -0.347656 1.0625 -0.476562 0.8125 -0.625 C 0.570312 -0.769531 0.359375 -0.9375 0.171875 -1.125 L 0.8125 -2.125 C 0.863281 -2.195312 0.929688 -2.257812 1.015625 -2.3125 C 1.097656 -2.363281 1.191406 -2.390625 1.296875 -2.390625 C 1.421875 -2.390625 1.546875 -2.347656 1.671875 -2.265625 C 1.804688 -2.179688 1.953125 -2.085938 2.109375 -1.984375 C 2.273438 -1.890625 2.460938 -1.800781 2.671875 -1.71875 C 2.890625 -1.644531 3.144531 -1.609375 3.4375 -1.609375 C 3.820312 -1.609375 4.125 -1.691406 4.34375 -1.859375 C 4.5625 -2.035156 4.671875 -2.3125 4.671875 -2.6875 C 4.671875 -2.90625 4.609375 -3.082031 4.484375 -3.21875 C 4.367188 -3.351562 4.210938 -3.460938 4.015625 -3.546875 C 3.828125 -3.640625 3.609375 -3.71875 3.359375 -3.78125 C 3.117188 -3.851562 2.867188 -3.929688 2.609375 -4.015625 C 2.347656 -4.097656 2.09375 -4.195312 1.84375 -4.3125 C 1.59375 -4.4375 1.367188 -4.597656 1.171875 -4.796875 C 0.984375 -4.992188 0.828125 -5.238281 0.703125 -5.53125 C 0.585938 -5.832031 0.53125 -6.203125 0.53125 -6.640625 C 0.53125 -6.984375 0.597656 -7.320312 0.734375 -7.65625 C 0.878906 -7.988281 1.085938 -8.285156 1.359375 -8.546875 C 1.640625 -8.804688 1.976562 -9.015625 2.375 -9.171875 C 2.769531 -9.328125 3.222656 -9.40625 3.734375 -9.40625 C 4.015625 -9.40625 4.289062 -9.378906 4.5625 -9.328125 C 4.832031 -9.285156 5.085938 -9.21875 5.328125 -9.125 C 5.566406 -9.039062 5.789062 -8.9375 6 -8.8125 C 6.21875 -8.695312 6.410156 -8.5625 6.578125 -8.40625 Z M 6.03125 -7.40625 "/></g></g></g><g fill="#000000" fill-opacity="1"><g transform="translate(93.298969, 64.836803)"><g><path d="M 7.578125 -7.59375 L 4.96875 -7.59375 L 4.96875 0 L 2.8125 0 L 2.8125 -7.59375 L 0.1875 -7.59375 L 0.1875 -9.296875 L 7.578125 -9.296875 Z M 7.578125 -7.59375 "/></g></g></g><g fill="#000000" fill-opacity="1"><g transform="translate(101.073748, 64.836803)"><g><path d="M 3.921875 -4.921875 C 4.210938 -4.921875 4.460938 -4.957031 4.671875 -5.03125 C 4.878906 -5.113281 5.046875 -5.21875 5.171875 -5.34375 C 5.304688 -5.476562 5.40625 -5.632812 5.46875 -5.8125 C 5.53125 -5.988281 5.5625 -6.175781 5.5625 -6.375 C 5.5625 -6.789062 5.425781 -7.113281 5.15625 -7.34375 C 4.894531 -7.570312 4.484375 -7.6875 3.921875 -7.6875 L 3.0625 -7.6875 L 3.0625 -4.921875 Z M 8.515625 0 L 6.5625 0 C 6.195312 0 5.9375 -0.132812 5.78125 -0.40625 L 4.234375 -3.109375 C 4.160156 -3.222656 4.078125 -3.304688 3.984375 -3.359375 C 3.898438 -3.410156 3.773438 -3.4375 3.609375 -3.4375 L 3.0625 -3.4375 L 3.0625 0 L 0.90625 0 L 0.90625 -9.296875 L 3.921875 -9.296875 C 4.597656 -9.296875 5.171875 -9.226562 5.640625 -9.09375 C 6.117188 -8.957031 6.503906 -8.765625 6.796875 -8.515625 C 7.097656 -8.265625 7.316406 -7.972656 7.453125 -7.640625 C 7.597656 -7.304688 7.671875 -6.941406 7.671875 -6.546875 C 7.671875 -6.242188 7.628906 -5.957031 7.546875 -5.6875 C 7.460938 -5.414062 7.34375 -5.164062 7.1875 -4.9375 C 7.03125 -4.71875 6.832031 -4.515625 6.59375 -4.328125 C 6.363281 -4.148438 6.097656 -4.003906 5.796875 -3.890625 C 5.941406 -3.816406 6.070312 -3.722656 6.1875 -3.609375 C 6.3125 -3.503906 6.425781 -3.378906 6.53125 -3.234375 Z M 8.515625 0 "/></g></g></g><g fill="#000000" fill-opacity="1"><g transform="translate(109.37192, 64.836803)"><g><path d="M 4.78125 -1.703125 C 5.070312 -1.703125 5.328125 -1.75 5.546875 -1.84375 C 5.773438 -1.9375 5.96875 -2.070312 6.125 -2.25 C 6.289062 -2.4375 6.414062 -2.65625 6.5 -2.90625 C 6.582031 -3.164062 6.625 -3.460938 6.625 -3.796875 L 6.625 -9.296875 L 8.78125 -9.296875 L 8.78125 -3.796875 C 8.78125 -3.222656 8.6875 -2.695312 8.5 -2.21875 C 8.3125 -1.738281 8.046875 -1.328125 7.703125 -0.984375 C 7.359375 -0.640625 6.9375 -0.367188 6.4375 -0.171875 C 5.945312 0.015625 5.394531 0.109375 4.78125 0.109375 C 4.15625 0.109375 3.597656 0.015625 3.109375 -0.171875 C 2.617188 -0.367188 2.195312 -0.640625 1.84375 -0.984375 C 1.5 -1.328125 1.234375 -1.738281 1.046875 -2.21875 C 0.867188 -2.695312 0.78125 -3.222656 0.78125 -3.796875 L 0.78125 -9.296875 L 2.9375 -9.296875 L 2.9375 -3.796875 C 2.9375 -3.472656 2.976562 -3.179688 3.0625 -2.921875 C 3.144531 -2.660156 3.265625 -2.4375 3.421875 -2.25 C 3.578125 -2.070312 3.769531 -1.9375 4 -1.84375 C 4.226562 -1.75 4.488281 -1.703125 4.78125 -1.703125 Z M 4.78125 -1.703125 "/></g></g></g><g fill="#000000" fill-opacity="1"><g transform="translate(118.934008, 64.836803)"><g><path d="M 7.171875 -2.40625 C 7.222656 -2.40625 7.269531 -2.394531 7.3125 -2.375 C 7.363281 -2.351562 7.414062 -2.320312 7.46875 -2.28125 L 8.328125 -1.375 C 7.953125 -0.882812 7.476562 -0.515625 6.90625 -0.265625 C 6.34375 -0.015625 5.679688 0.109375 4.921875 0.109375 C 4.210938 0.109375 3.578125 -0.0078125 3.015625 -0.25 C 2.453125 -0.5 1.976562 -0.832031 1.59375 -1.25 C 1.207031 -1.675781 0.910156 -2.175781 0.703125 -2.75 C 0.492188 -3.332031 0.390625 -3.96875 0.390625 -4.65625 C 0.390625 -5.34375 0.5 -5.976562 0.71875 -6.5625 C 0.945312 -7.144531 1.265625 -7.644531 1.671875 -8.0625 C 2.078125 -8.488281 2.566406 -8.816406 3.140625 -9.046875 C 3.710938 -9.285156 4.335938 -9.40625 5.015625 -9.40625 C 5.367188 -9.40625 5.695312 -9.375 6 -9.3125 C 6.3125 -9.25 6.601562 -9.160156 6.875 -9.046875 C 7.144531 -8.941406 7.390625 -8.8125 7.609375 -8.65625 C 7.835938 -8.507812 8.039062 -8.34375 8.21875 -8.15625 L 7.484375 -7.1875 C 7.441406 -7.125 7.382812 -7.066406 7.3125 -7.015625 C 7.25 -6.972656 7.160156 -6.953125 7.046875 -6.953125 C 6.972656 -6.953125 6.898438 -6.96875 6.828125 -7 C 6.765625 -7.03125 6.691406 -7.070312 6.609375 -7.125 C 6.535156 -7.175781 6.453125 -7.226562 6.359375 -7.28125 C 6.273438 -7.34375 6.171875 -7.394531 6.046875 -7.4375 C 5.921875 -7.488281 5.769531 -7.53125 5.59375 -7.5625 C 5.425781 -7.601562 5.234375 -7.625 5.015625 -7.625 C 4.648438 -7.625 4.320312 -7.554688 4.03125 -7.421875 C 3.738281 -7.285156 3.484375 -7.09375 3.265625 -6.84375 C 3.046875 -6.59375 2.878906 -6.28125 2.765625 -5.90625 C 2.648438 -5.539062 2.59375 -5.125 2.59375 -4.65625 C 2.59375 -4.175781 2.65625 -3.75 2.78125 -3.375 C 2.914062 -3.007812 3.09375 -2.695312 3.3125 -2.4375 C 3.539062 -2.1875 3.800781 -1.992188 4.09375 -1.859375 C 4.394531 -1.734375 4.71875 -1.671875 5.0625 -1.671875 C 5.25 -1.671875 5.421875 -1.679688 5.578125 -1.703125 C 5.742188 -1.722656 5.894531 -1.753906 6.03125 -1.796875 C 6.175781 -1.835938 6.3125 -1.894531 6.4375 -1.96875 C 6.5625 -2.050781 6.6875 -2.148438 6.8125 -2.265625 C 6.863281 -2.304688 6.921875 -2.335938 6.984375 -2.359375 C 7.046875 -2.390625 7.109375 -2.40625 7.171875 -2.40625 Z M 7.171875 -2.40625 "/></g></g></g><g fill="#000000" fill-opacity="1"><g transform="translate(127.302434, 64.836803)"><g><path d="M 7.578125 -7.59375 L 4.96875 -7.59375 L 4.96875 0 L 2.8125 0 L 2.8125 -7.59375 L 0.1875 -7.59375 L 0.1875 -9.296875 L 7.578125 -9.296875 Z M 7.578125 -7.59375 "/></g></g></g><g fill="#000000" fill-opacity="1"><g transform="translate(135.077213, 64.836803)"><g><path d="M 3.0625 0 L 0.90625 0 L 0.90625 -9.296875 L 3.0625 -9.296875 Z M 3.0625 0 "/></g></g></g><g fill="#000000" fill-opacity="1"><g transform="translate(139.047584, 64.836803)"><g><path d="M 10.03125 -4.65625 C 10.03125 -3.976562 9.910156 -3.347656 9.671875 -2.765625 C 9.441406 -2.191406 9.113281 -1.691406 8.6875 -1.265625 C 8.269531 -0.835938 7.765625 -0.5 7.171875 -0.25 C 6.578125 -0.0078125 5.921875 0.109375 5.203125 0.109375 C 4.472656 0.109375 3.8125 -0.0078125 3.21875 -0.25 C 2.625 -0.5 2.113281 -0.835938 1.6875 -1.265625 C 1.269531 -1.691406 0.941406 -2.191406 0.703125 -2.765625 C 0.472656 -3.347656 0.359375 -3.976562 0.359375 -4.65625 C 0.359375 -5.320312 0.472656 -5.941406 0.703125 -6.515625 C 0.941406 -7.097656 1.269531 -7.601562 1.6875 -8.03125 C 2.113281 -8.457031 2.625 -8.789062 3.21875 -9.03125 C 3.8125 -9.28125 4.472656 -9.40625 5.203125 -9.40625 C 5.921875 -9.40625 6.578125 -9.28125 7.171875 -9.03125 C 7.765625 -8.789062 8.269531 -8.457031 8.6875 -8.03125 C 9.113281 -7.601562 9.441406 -7.097656 9.671875 -6.515625 C 9.910156 -5.941406 10.03125 -5.320312 10.03125 -4.65625 Z M 7.8125 -4.65625 C 7.8125 -5.113281 7.753906 -5.523438 7.640625 -5.890625 C 7.523438 -6.265625 7.351562 -6.578125 7.125 -6.828125 C 6.90625 -7.085938 6.632812 -7.285156 6.3125 -7.421875 C 5.988281 -7.554688 5.617188 -7.625 5.203125 -7.625 C 4.785156 -7.625 4.410156 -7.554688 4.078125 -7.421875 C 3.753906 -7.285156 3.476562 -7.085938 3.25 -6.828125 C 3.03125 -6.578125 2.863281 -6.265625 2.75 -5.890625 C 2.632812 -5.523438 2.578125 -5.113281 2.578125 -4.65625 C 2.578125 -4.1875 2.632812 -3.769531 2.75 -3.40625 C 2.863281 -3.039062 3.03125 -2.726562 3.25 -2.46875 C 3.476562 -2.21875 3.753906 -2.023438 4.078125 -1.890625 C 4.410156 -1.753906 4.785156 -1.6875 5.203125 -1.6875 C 5.617188 -1.6875 5.988281 -1.753906 6.3125 -1.890625 C 6.632812 -2.023438 6.90625 -2.21875 7.125 -2.46875 C 7.351562 -2.726562 7.523438 -3.039062 7.640625 -3.40625 C 7.753906 -3.769531 7.8125 -4.1875 7.8125 -4.65625 Z M 7.8125 -4.65625 "/></g></g></g><g fill="#000000" fill-opacity="1"><g transform="translate(149.445882, 64.836803)"><g><path d="M 9.015625 -9.296875 L 9.015625 0 L 7.890625 0 C 7.722656 0 7.582031 -0.0234375 7.46875 -0.078125 C 7.363281 -0.128906 7.253906 -0.222656 7.140625 -0.359375 L 2.75 -5.90625 C 2.769531 -5.738281 2.78125 -5.578125 2.78125 -5.421875 C 2.789062 -5.265625 2.796875 -5.117188 2.796875 -4.984375 L 2.796875 0 L 0.90625 0 L 0.90625 -9.296875 L 2.03125 -9.296875 C 2.125 -9.296875 2.203125 -9.289062 2.265625 -9.28125 C 2.335938 -9.28125 2.394531 -9.265625 2.4375 -9.234375 C 2.488281 -9.210938 2.535156 -9.179688 2.578125 -9.140625 C 2.628906 -9.097656 2.6875 -9.039062 2.75 -8.96875 L 7.171875 -3.390625 C 7.148438 -3.566406 7.132812 -3.738281 7.125 -3.90625 C 7.113281 -4.070312 7.109375 -4.226562 7.109375 -4.375 L 7.109375 -9.296875 Z M 9.015625 -9.296875 "/></g></g></g><g fill="#000000" fill-opacity="1"><g transform="translate(159.375661, 64.836803)"><g/></g></g></svg>