<svg version="1.1" id="svg159" xml:space="preserve" width="300" height="300" viewBox="0 0 682.66669 682.66669" xmlns="http://www.w3.org/2000/svg" xmlns:svg="http://www.w3.org/2000/svg" xmlns:xlink="http://www.w3.org/1999/xlink" xmlns:svgjs="http://svgjs.dev/svgjs"><g width="100%" height="100%" transform="matrix(1,0,0,1,0,0)"><defs id="defs163"><clipPath clipPathUnits="userSpaceOnUse" id="clipPath173"><path d="M 0,512 H 512 V 0 H 0 Z" id="path171" fill="#ffc527" fill-opacity="1" data-original-color="#000000ff" stroke="none" stroke-opacity="1"/></clipPath></defs><g id="g165" transform="matrix(1.3333333,0,0,-1.3333333,0,682.66667)"><g id="g167"><g id="g169" clip-path="url(#clipPath173)"><g id="g175" transform="translate(256.0142,206.4937)"><path d="m 0,0 c 54.404,0 98.949,44.447 98.949,98.729 v 53.659 H 0 -98.977 V 98.729 C -98.977,44.447 -54.432,0 0,0 Z" style="stroke-linecap: round; stroke-linejoin: round; stroke-miterlimit: 10; stroke-dasharray: none;" id="path177" fill="none" fill-opacity="1" stroke="#ffc527" stroke-opacity="1" data-original-stroke-color="#000000ff" stroke-width="20" data-original-stroke-width="20"/></g><g id="g179" transform="translate(217.6621,214.2607)"><path d="m 0,0 v -32.853 c -48.466,-11.565 -153.636,-21.571 -153.636,-116.19 v -55.218 h 191.988 191.96 v 55.218 c 0,94.619 -105.17,104.625 -153.636,116.19 V 0" style="stroke-linecap: round; stroke-linejoin: round; stroke-miterlimit: 10; stroke-dasharray: none;" id="path181" fill="none" fill-opacity="1" stroke="#ffc527" stroke-opacity="1" data-original-stroke-color="#000000ff" stroke-width="20" data-original-stroke-width="20"/></g><g id="g183" transform="translate(354.9629,358.8813)"><path d="m 0,0 h 15.938 c 13.92,0 25.312,-11.367 25.312,-25.256 0,-13.918 -11.392,-25.285 -25.312,-25.285 H 0" style="stroke-linecap: round; stroke-linejoin: round; stroke-miterlimit: 10; stroke-dasharray: none;" id="path185" fill="none" fill-opacity="1" stroke="#ffc527" stroke-opacity="1" data-original-stroke-color="#000000ff" stroke-width="20" data-original-stroke-width="20"/></g><g id="g187" transform="translate(157.0371,358.8813)"><path d="m 0,0 h -15.938 c -13.92,0 -25.312,-11.367 -25.312,-25.256 0,-13.918 11.392,-25.285 25.312,-25.285 H 0" style="stroke-linecap: round; stroke-linejoin: round; stroke-miterlimit: 10; stroke-dasharray: none;" id="path189" fill="none" fill-opacity="1" stroke="#ffc527" stroke-opacity="1" data-original-stroke-color="#000000ff" stroke-width="20" data-original-stroke-width="20"/></g><g id="g191" transform="translate(294.3379,181.4077)"><path d="m 0,0 c 0,-21.033 -17.244,-38.267 -38.324,-38.267 -21.108,0 -38.352,17.234 -38.352,38.267" style="stroke-linecap: round; stroke-linejoin: round; stroke-miterlimit: 10; stroke-dasharray: none;" id="path193" fill="none" fill-opacity="1" stroke="#ffc527" stroke-opacity="1" data-original-stroke-color="#000000ff" stroke-width="20" data-original-stroke-width="20"/></g><g id="g195" transform="translate(221.8379,502)"><path d="M 0,0 H 68.324 L 58.239,-60.037 H 10.085 Z" style="stroke-linecap: round; stroke-linejoin: round; stroke-miterlimit: 10; stroke-dasharray: none;" id="path197" fill="none" fill-opacity="1" stroke="#ffc527" stroke-opacity="1" data-original-stroke-color="#000000ff" stroke-width="20" data-original-stroke-width="20"/></g><g id="g199" transform="translate(224.5088,486.1831)"><path d="m 0,0 c -48.012,-13.748 -83.409,-58.081 -83.409,-110.237 v -17.065 h 229.801 v 17.065 c 0,52.156 -35.398,96.489 -83.41,110.237" style="stroke-linecap: round; stroke-linejoin: round; stroke-miterlimit: 10; stroke-dasharray: none;" id="path201" fill="none" fill-opacity="1" stroke="#ffc527" stroke-opacity="1" data-original-stroke-color="#000000ff" stroke-width="20" data-original-stroke-width="20"/></g><g id="g203" transform="translate(124.3384,155.2446)"><path d="M 0,0 V -145.245" style="stroke-linecap: round; stroke-linejoin: round; stroke-miterlimit: 10; stroke-dasharray: none;" id="path205" fill="none" fill-opacity="1" stroke="#ffc527" stroke-opacity="1" data-original-stroke-color="#000000ff" stroke-width="20" data-original-stroke-width="20"/></g><g id="g207" transform="translate(387.6621,155.2446)"><path d="M 0,0 V -145.245" style="stroke-linecap: round; stroke-linejoin: round; stroke-miterlimit: 10; stroke-dasharray: none;" id="path209" fill="none" fill-opacity="1" stroke="#ffc527" stroke-opacity="1" data-original-stroke-color="#000000ff" stroke-width="20" data-original-stroke-width="20"/></g><g id="g211" transform="translate(174.9634,172.082)"><path d="M 0,0 V -90.083 H 162.074 V 0" style="stroke-linecap: round; stroke-linejoin: round; stroke-miterlimit: 10; stroke-dasharray: none;" id="path213" fill="none" fill-opacity="1" stroke="#ffc527" stroke-opacity="1" data-original-stroke-color="#000000ff" stroke-width="20" data-original-stroke-width="20"/></g><g id="g215" transform="translate(219.3667,400.4365)"><path d="M 0,0 H 73.267" style="stroke-linecap: round; stroke-linejoin: round; stroke-miterlimit: 10; stroke-dasharray: none;" id="path217" fill="none" fill-opacity="1" stroke="#ffc527" stroke-opacity="1" data-original-stroke-color="#000000ff" stroke-width="20" data-original-stroke-width="20"/></g></g></g></g></g></svg>