<svg xmlns="http://www.w3.org/2000/svg" xmlns:xlink="http://www.w3.org/1999/xlink" version="1.1" id="Capa_1" x="0px" y="0px" viewBox="0 0 511.667 511.667" style="enable-background:new 0 0 511.667 511.667;" xml:space="preserve" width="300" height="300" xmlns:svgjs="http://svgjs.dev/svgjs"><g width="100%" height="100%" transform="matrix(1,0,0,1,0,0)"><g>
	<polyline style="stroke-miterlimit: 10;" points="432.833,219.414 432.833,480.414 &#10;&#9;&#9;78.833,480.414 78.833,219.414 &#9;" fill="none" fill-opacity="1" stroke="#ffc527" stroke-opacity="1" data-original-stroke-color="#000000ff" stroke-width="20" data-original-stroke-width="30"/>
	<polygon style="stroke-miterlimit: 10;" points="458.833,230.767 255.833,104.912 &#10;&#9;&#9;52.833,230.767 20.758,180.06 255.833,33.916 490.909,180.06 &#9;" fill="none" fill-opacity="1" stroke="#ffc527" stroke-opacity="1" data-original-stroke-color="#000000ff" stroke-width="20" data-original-stroke-width="30"/>
	<polyline style="stroke-miterlimit: 10;" points="347.833,92.414 347.833,45.414 &#10;&#9;&#9;407.833,45.414 407.833,131.414 &#9;" fill="none" fill-opacity="1" stroke="#ffc527" stroke-opacity="1" data-original-stroke-color="#000000ff" stroke-width="20" data-original-stroke-width="30"/>
	<path style="stroke-miterlimit: 10;" d="M209.149,417.414h-48.316V300.651h32.564&#10;&#9;&#9;l31.539-35.566v-51.671h13.322c30.25,0,54.772,24.522,54.772,54.772v20.386h34.271c19.323,0,34.085,17.248,31.102,36.339&#10;&#9;&#9;l-10.294,65.883c-2.394,15.323-15.593,26.62-31.102,26.62H209.149z" fill="none" fill-opacity="1" stroke="#ffc527" stroke-opacity="1" data-original-stroke-color="#000000ff" stroke-width="20" data-original-stroke-width="30"/>
</g></g></svg>